<svg width="1290" height="1013" viewBox="0 0 1290 1013" fill="none" xmlns="http://www.w3.org/2000/svg">
<g filter="url(#filter0_d_425_30)">
<path d="M1087.23 770.547C1090.4 770.547 1092.73 772.379 1092.73 774.862C1092.73 777.237 1094.63 781.08 1096.95 783.403C1100.75 787.204 1101.75 786.976 1106.93 781.146C1110.8 776.798 1113.1 775.795 1113.93 778.1C1116 783.887 1125.69 782.192 1125.69 776.04C1125.69 773.019 1124.45 770.547 1122.94 770.547C1121.43 770.547 1120.19 768.075 1120.19 765.054C1120.19 761.393 1122.03 759.561 1125.69 759.561C1128.71 759.561 1131.18 758.888 1131.18 758.064C1131.18 754.721 1117.41 743.082 1113.45 743.082C1111.12 743.082 1109.21 742.376 1109.21 741.513C1109.21 738.289 1117.21 732.096 1121.37 732.096C1123.74 732.096 1125.69 730.86 1125.69 729.349C1125.69 727.839 1122.51 726.603 1118.62 726.603C1114.74 726.603 1109.79 724.837 1107.64 722.678C1103.14 718.179 1102.38 710.124 1106.46 710.124C1107.97 710.124 1109.21 706.416 1109.21 701.884C1109.21 697.352 1107.97 693.645 1106.46 693.645C1100.93 693.645 1103.93 684.661 1111.95 677.166C1116.48 672.933 1120.19 667.492 1120.19 665.078C1120.19 658.789 1128.27 659.662 1134.29 666.6L1139.42 672.513L1144.55 666.6C1151.42 658.673 1153.15 659.14 1153.15 668.926C1153.15 675.334 1154.37 677.166 1158.65 677.166C1162.92 677.166 1164.14 678.997 1164.14 685.405C1164.14 695.361 1170.63 696.498 1178.14 687.852C1182.66 682.639 1183.58 682.48 1187.38 686.281C1189.71 688.605 1191.61 692.447 1191.61 694.823C1191.61 697.306 1193.94 699.138 1197.1 699.138C1204.53 699.138 1204.04 701.077 1194.36 710.124C1186.33 717.619 1183.34 726.603 1188.86 726.603C1190.37 726.603 1191.61 725.367 1191.61 723.856C1191.61 722.346 1194.08 721.11 1197.1 721.11C1200.23 721.11 1202.6 722.942 1202.6 725.353C1202.6 730.849 1190.36 743.082 1184.87 743.082C1182.53 743.082 1180.62 744.318 1180.62 745.828C1180.62 747.339 1178.68 748.575 1176.31 748.575C1170.76 748.575 1164.14 755.188 1164.14 760.739C1164.14 766.649 1167.63 766.152 1172.38 759.561C1175.39 755.386 1179.49 754.068 1189.47 754.068C1200.76 754.068 1202.6 753.302 1202.6 748.575C1202.6 744.914 1204.43 743.082 1208.09 743.082C1211.11 743.082 1213.58 744.318 1213.58 745.828C1213.58 749.8 1223.9 749.212 1225.25 745.166C1226.61 741.074 1235.56 748.946 1235.56 754.235C1235.56 756.056 1238.22 759.852 1241.47 762.673L1247.39 767.8L1241.47 772.928C1238.21 775.754 1235.56 781.305 1235.56 785.287C1235.56 790.083 1234.08 792.519 1231.17 792.519C1228.75 792.519 1223.31 796.227 1219.08 800.758C1214.84 805.29 1209.4 808.998 1206.99 808.998C1204.57 808.998 1202.6 810.234 1202.6 811.744C1202.6 813.255 1205.07 814.491 1208.09 814.491C1211.75 814.491 1213.58 816.323 1213.58 819.984C1213.58 823.005 1214.82 825.477 1216.33 825.477C1217.84 825.477 1219.08 824.241 1219.08 822.73C1219.08 821.22 1221.55 819.984 1224.57 819.984C1230.58 819.984 1232.09 824.345 1226.71 826.139C1224.56 826.853 1226 829.907 1230.7 834.606C1234.75 838.649 1238.73 841.956 1239.55 841.956C1240.38 841.956 1241.05 835.776 1241.05 828.223C1241.05 815.59 1244.52 809.789 1247.22 817.899C1248.74 822.437 1257.53 813.837 1257.53 807.82C1257.53 805.337 1259.86 803.505 1263.03 803.505C1266.69 803.505 1268.52 805.337 1268.52 808.998C1268.52 813.271 1270.35 814.491 1276.76 814.491C1284.09 814.491 1285 815.406 1285 822.73C1285 827.262 1283.76 830.97 1282.25 830.97C1280.74 830.97 1279.51 833.17 1279.51 835.856C1279.51 838.545 1277.03 842.525 1274.01 844.703C1270.99 846.881 1268.52 850.86 1268.52 853.549C1268.52 857.419 1266.23 858.435 1257.53 858.435C1248.38 858.435 1246.55 859.35 1246.55 863.928C1246.55 868.202 1248.38 869.421 1254.79 869.421C1261.19 869.421 1263.03 870.641 1263.03 874.914C1263.03 879.605 1261.19 880.407 1250.47 880.407C1242.97 880.407 1236.25 882.066 1233.79 884.527C1230.13 888.188 1230.2 889.177 1234.45 893.428C1237.89 896.867 1239.56 897.251 1240.37 894.801C1241 892.926 1245.11 891.393 1249.52 891.393C1257.04 891.393 1257.53 892.074 1257.53 902.379C1257.53 911.374 1256.58 913.365 1252.27 913.365C1249.37 913.365 1246.37 914.909 1245.61 916.798C1244.56 919.397 1243.53 919.248 1241.41 916.191C1239.87 913.969 1237.72 913.036 1236.64 914.115C1235.56 915.194 1237.35 918.391 1240.61 921.223C1247.53 927.224 1248.46 935.337 1242.23 935.337C1236.68 935.337 1230.06 941.951 1230.06 947.501C1230.06 949.874 1228.83 951.816 1227.32 951.816C1225.81 951.816 1224.57 955.524 1224.57 960.056C1224.57 964.588 1225.81 968.295 1227.32 968.295C1228.83 968.295 1230.06 970.767 1230.06 973.788C1230.06 976.81 1228.83 979.281 1227.32 979.281C1225.81 979.281 1224.57 981.753 1224.57 984.774C1224.57 988.436 1226.4 990.267 1230.06 990.267C1233.73 990.267 1235.56 992.099 1235.56 995.76C1235.56 1000.64 1233.73 1001.25 1219.08 1001.25C1209.92 1001.25 1202.6 1002.47 1202.6 1004H864.056L453.412 1001.25L130.745 1004H44.062M1078.3 782.678C1075.56 783.958 1075.56 784.601 1078.3 785.881C1080.19 786.762 1081.74 791.088 1081.74 795.493C1081.74 801.673 1080.48 803.505 1076.24 803.505C1073.22 803.505 1070.75 804.741 1070.75 806.251C1070.75 807.762 1069.51 808.998 1068 808.998C1066.49 808.998 1065.26 805.29 1065.26 800.758C1065.26 793.738 1064.21 792.519 1058.2 792.519C1050.18 792.519 1039.7 784.098 1045.37 782.211C1051.87 780.044 1048.74 776.04 1040.54 776.04C1034.13 776.04 1032.3 774.82 1032.3 770.547C1032.3 767.526 1031.06 765.054 1029.55 765.054C1025.59 765.054 1026.16 754.823 1030.24 752.922C1032.98 751.643 1032.98 751 1030.24 749.72C1028.35 748.838 1026.8 745.749 1026.8 742.854C1026.8 739.959 1025.57 737.589 1024.06 737.589C1022.55 737.589 1021.31 738.825 1021.31 740.335C1021.31 741.846 1017.6 743.082 1013.07 743.082C1006.66 743.082 1004.83 741.862 1004.83 737.589C1004.83 734.568 1006.06 732.096 1007.58 732.096C1009.09 732.096 1010.32 729.624 1010.32 726.603C1010.32 723.582 1009.09 721.11 1007.58 721.11C1006.06 721.11 1004.83 722.346 1004.83 723.856C1004.83 725.367 1003.59 726.603 1002.08 726.603C1000.57 726.603 999.335 724.131 999.335 721.11C999.335 717.449 1001.17 715.617 1004.83 715.617C1007.99 715.617 1010.32 713.785 1010.32 711.302C1010.32 705.751 1016.94 699.138 1022.49 699.138C1024.97 699.138 1026.8 696.809 1026.8 693.645C1026.8 689.984 1024.97 688.152 1021.31 688.152C1018.29 688.152 1015.82 686.916 1015.82 685.405C1015.82 683.894 1017.76 682.659 1020.13 682.659C1025.68 682.659 1032.3 676.045 1032.3 670.494C1032.3 668.012 1029.97 666.18 1026.8 666.18C1022.53 666.18 1021.31 664.348 1021.31 657.94C1021.31 651.532 1020.09 649.7 1015.82 649.7C1012.79 649.7 1010.32 650.936 1010.32 652.447C1010.32 653.958 1005.38 655.193 999.335 655.193C990.18 655.193 988.348 654.279 988.348 649.7C988.348 646.039 990.18 644.207 993.841 644.207C996.863 644.207 999.335 642.972 999.335 641.461C999.335 639.95 998.099 638.714 996.588 638.714C995.077 638.714 993.841 636.243 993.841 633.221C993.841 630.2 995.077 627.728 996.588 627.728C998.099 627.728 999.335 625.257 999.335 622.235C999.335 617.657 997.503 616.742 988.348 616.742C980.19 616.742 977.361 615.63 977.361 612.427C977.361 607.396 970.917 600.263 966.373 600.263C961.83 600.263 955.386 607.396 955.386 612.427C955.386 617.78 953.395 617.891 948.324 612.818C942.605 607.102 943.462 600.263 949.893 600.263C952.914 600.263 955.386 599.027 955.386 597.517C955.386 596.006 957.328 594.77 959.702 594.77C965.72 594.77 974.32 585.976 969.782 584.463C965.736 583.114 965.148 572.798 969.12 572.798C970.631 572.798 971.867 574.034 971.867 575.545C971.867 577.055 973.103 578.291 974.614 578.291C976.124 578.291 977.361 576.396 977.361 574.081C977.361 568.613 995.149 550.826 1000.62 550.826C1003 550.826 1004.83 553.216 1004.83 556.319C1004.83 559.34 1006.06 561.812 1007.58 561.812C1009.09 561.812 1010.32 564.284 1010.32 567.305C1010.32 570.966 1012.15 572.798 1015.82 572.798C1019.48 572.798 1021.31 570.966 1021.31 567.305C1021.31 561.208 1031.04 559.423 1032.96 565.168C1034.41 569.541 1048.78 555.391 1048.78 549.577C1048.78 547.242 1050.01 545.333 1051.52 545.333C1053.03 545.333 1054.27 546.569 1054.27 548.08C1054.27 549.59 1056.64 550.826 1059.54 550.826C1062.43 550.826 1065.35 552.37 1066.03 554.259C1066.86 556.564 1069.16 555.561 1073.02 551.213C1078.21 545.383 1079.21 545.155 1083.01 548.956C1085.33 551.279 1087.23 555.122 1087.23 557.497C1087.23 559.98 1089.56 561.812 1092.73 561.812C1095.75 561.812 1098.22 563.048 1098.22 564.559C1098.22 569.593 1106.62 567.388 1113.45 560.563C1117.16 556.855 1120.19 551.911 1120.19 549.577C1120.19 547.242 1121.43 545.333 1122.94 545.333C1124.45 545.333 1125.69 547.805 1125.69 550.826C1125.69 553.847 1126.92 556.319 1128.43 556.319C1129.94 556.319 1131.18 558.791 1131.18 561.812C1131.18 568.242 1138.02 569.099 1143.74 563.381C1149.17 557.945 1148.64 552.746 1142.17 548.08C1137.18 544.487 1134.34 534.347 1138.32 534.347C1139.22 534.347 1143.58 538.225 1148.01 542.963C1152.44 547.703 1156.95 550.623 1158.04 549.453C1159.13 548.286 1158.48 546.775 1156.59 546.102C1149.27 543.49 1153.67 539.84 1164.14 539.84C1170.18 539.84 1175.13 539.134 1175.13 538.272C1175.13 535.047 1167.13 528.854 1162.96 528.854C1160.48 528.854 1158.65 526.525 1158.65 523.361C1158.65 520.34 1159.88 517.868 1161.39 517.868C1162.91 517.868 1164.14 514.16 1164.14 509.629C1164.14 505.097 1162.91 501.389 1161.39 501.389C1159.88 501.389 1158.65 502.625 1158.65 504.136C1158.65 505.646 1156.18 506.882 1153.15 506.882C1149.95 506.882 1147.66 505.05 1147.66 502.49C1147.66 500.076 1143.65 494.322 1138.73 489.705C1133.09 484.402 1131.07 480.881 1133.24 480.137C1135.13 479.488 1136.67 475.355 1136.67 470.949C1136.67 466.544 1137.91 462.938 1139.42 462.938C1140.93 462.938 1142.17 459.23 1142.17 454.698C1142.17 450.167 1140.93 446.459 1139.42 446.459C1137.91 446.459 1136.67 442.751 1136.67 438.219C1136.67 431.93 1135.43 429.98 1131.41 429.98C1128.51 429.98 1125.62 431.523 1124.97 433.413C1124.22 435.583 1120.7 433.561 1115.4 427.92C1110.78 423.009 1105.03 418.994 1102.61 418.994C1100.05 418.994 1098.22 416.703 1098.22 413.501C1098.22 410.48 1096.98 408.008 1095.47 408.008C1093.96 408.008 1092.73 409.244 1092.73 410.754C1092.73 412.265 1089.02 413.501 1084.48 413.501C1079.95 413.501 1076.24 414.737 1076.24 416.247C1076.24 417.758 1073.77 418.994 1070.75 418.994C1066.68 418.994 1065.26 417.162 1065.26 411.932C1065.26 402.921 1059.36 397.022 1050.35 397.022C1046.46 397.022 1043.28 395.786 1043.28 394.275C1043.28 392.765 1037.1 391.529 1029.55 391.529C1022 391.529 1015.82 390.293 1015.82 388.782C1015.82 387.272 1012.11 386.036 1007.58 386.036C1001.17 386.036 999.335 387.255 999.335 391.529C999.335 395.19 997.503 397.022 993.841 397.022C990.82 397.022 988.348 398.258 988.348 399.768C988.348 401.279 984.639 402.515 980.107 402.515C975.575 402.515 971.867 401.279 971.867 399.768C971.867 398.258 969.395 397.022 966.373 397.022C962.099 397.022 960.88 398.854 960.88 405.261C960.88 414.476 959.537 415.297 953.818 409.576C948.099 403.861 948.956 397.022 955.386 397.022C959.048 397.022 960.88 395.19 960.88 391.529C960.88 387.255 962.712 386.036 969.12 386.036C976.446 386.036 977.361 385.121 977.361 377.796C977.361 373.264 976.124 369.557 974.614 369.557C973.103 369.557 971.867 368.321 971.867 366.81C971.867 365.3 974.339 364.064 977.361 364.064C980.382 364.064 982.854 362.828 982.854 361.317C982.854 359.807 985.326 358.571 988.348 358.571C992.622 358.571 993.841 356.739 993.841 350.331C993.841 345.799 995.077 342.092 996.588 342.092C998.099 342.092 999.335 340.117 999.335 337.7C999.335 335.286 1003.04 329.845 1007.58 325.613C1015.6 318.117 1018.6 309.133 1013.07 309.133C1011.56 309.133 1010.32 305.426 1010.32 300.894C1010.32 296.362 1011.56 292.654 1013.07 292.654C1014.58 292.654 1015.82 291.419 1015.82 289.908C1015.82 288.397 1013.34 287.161 1010.32 287.161C1006.05 287.161 1004.83 285.33 1004.83 278.922C1004.83 274.39 1006.06 270.682 1007.58 270.682C1009.09 270.682 1010.32 269.446 1010.32 267.936C1010.32 266.425 1008.43 265.189 1006.11 265.189C1000.97 265.189 982.854 247.549 982.854 242.542C982.854 240.559 985.326 237.156 988.348 234.978C991.369 232.8 993.841 228.82 993.841 226.131C993.841 223.077 991.784 221.245 988.348 221.245C985.183 221.245 982.854 219.413 982.854 216.931C982.854 207.765 968.307 200.342 965.695 208.175C964.272 212.445 955.386 204.283 955.386 198.702C955.386 196.661 952.914 193.212 949.893 191.034C942.441 185.664 942.987 182.794 951.461 182.794C959.476 182.794 969.952 174.373 964.288 172.487C958.866 170.679 960.339 166.315 966.373 166.315C970.647 166.315 971.867 164.483 971.867 158.076C971.867 153.544 970.631 149.836 969.12 149.836C967.552 149.836 966.373 141.597 966.373 130.61C966.373 113.217 965.851 111.385 960.88 111.385C957.858 111.385 955.386 112.621 955.386 114.131C955.386 115.642 954.15 116.878 952.639 116.878C951.129 116.878 949.893 113.17 949.893 108.638C949.893 104.107 948.657 100.399 947.146 100.399C945.635 100.399 944.399 101.635 944.399 103.145C944.399 104.656 943.163 105.892 941.652 105.892C940.142 105.892 938.906 103.95 938.906 101.577C938.906 92.2391 924.82 85.2629 921.28 92.846C919.999 95.5925 919.357 95.5925 918.077 92.846C917.195 90.9591 914.105 89.4129 911.21 89.4129C906.897 89.4129 905.944 91.4041 905.944 100.399C905.944 109.553 905.03 111.385 900.451 111.385C896.789 111.385 894.957 113.217 894.957 116.878C894.957 123.008 885.22 124.747 883.291 118.963C881.404 113.299 872.983 123.774 872.983 131.789C872.983 135.672 871.747 138.85 870.236 138.85C868.67 138.85 867.489 130.687 867.489 119.852C867.489 107.342 866.316 100.311 864.056 99.2536C861.309 97.9737 861.309 97.331 864.056 96.0511C865.946 95.1695 867.489 92.0797 867.489 89.1849C867.489 86.2873 868.725 83.9198 870.236 83.9198C871.747 83.9198 872.983 77.7402 872.983 70.1873C872.983 59.5336 872.016 56.4548 868.668 56.4548C861.509 56.4548 856.502 49.1847 856.502 38.7974C856.502 30.8216 855.478 28.9897 851.009 28.9897C846.735 28.9897 845.515 27.1578 845.515 20.7502C845.515 13.6807 844.488 12.5106 838.283 12.5106C834.305 12.5106 828.806 9.92068 826.06 6.7567L821.069 1L814.065 8.00365C810.211 11.857 807.06 18.1548 807.06 21.9999C807.06 25.845 805.824 28.9897 804.313 28.9897C802.803 28.9897 801.567 30.9314 801.567 33.3044C801.567 39.322 792.772 47.9214 791.258 43.3841C790.632 41.5083 786.517 39.9757 782.111 39.9757C775.041 39.9757 774.099 40.9425 774.099 48.2152C774.099 55.5402 773.184 56.4548 765.858 56.4548C759.45 56.4548 757.618 57.6742 757.618 61.9478C757.618 64.9689 758.854 67.4408 760.365 67.4408C761.876 67.4408 763.112 68.6767 763.112 70.1873C763.112 71.6979 760.64 72.9338 757.618 72.9338C753.957 72.9338 752.124 74.7657 752.124 78.4268C752.124 81.448 753.361 83.9198 754.871 83.9198C756.382 83.9198 757.618 86.3917 757.618 89.4129C757.618 93.074 755.786 94.9059 752.124 94.9059C749.103 94.9059 746.631 93.6699 746.631 92.1594C746.631 90.6488 745.395 89.4129 743.884 89.4129C742.373 89.4129 741.137 93.1206 741.137 97.6524C741.137 102.184 739.901 105.892 738.391 105.892C736.88 105.892 735.644 107.834 735.644 110.207C735.644 114.37 729.45 122.371 726.225 122.371C725.363 122.371 724.657 119.899 724.657 116.878C724.657 113.857 725.893 111.385 727.403 111.385C728.914 111.385 730.15 108.913 730.15 105.892C730.15 102.871 731.386 100.399 732.897 100.399C734.408 100.399 735.644 96.6911 735.644 92.1594C735.644 87.6276 736.88 83.9198 738.391 83.9198C742.379 83.9198 741.766 68.1934 737.704 66.2955C734.957 65.0157 734.957 64.3729 737.704 63.0931C743.431 60.4207 741.824 50.9618 735.644 50.9618C731.982 50.9618 730.15 49.1298 730.15 45.4687C730.15 41.8076 728.318 39.9757 724.657 39.9757C721.635 39.9757 719.163 41.2116 719.163 42.7222C719.163 44.2328 716.691 45.4687 713.67 45.4687C710.648 45.4687 708.176 44.2328 708.176 42.7222C708.176 41.2116 704.468 39.9757 699.936 39.9757C695.403 39.9757 691.695 41.2116 691.695 42.7222C691.695 44.2328 692.931 45.4687 694.442 45.4687C695.953 45.4687 697.189 46.7047 697.189 48.2152C697.189 49.7258 693.481 50.9618 688.948 50.9618C680.705 50.9618 677.673 54.914 684.142 57.2238C686.031 57.8967 686.581 59.5088 685.367 60.8052C684.15 62.1015 682.057 61.3847 680.714 59.2095C678.708 55.9659 677.195 56.4712 672.254 62.0356C668.251 66.5399 665.821 67.6633 665.002 65.3809C664.324 63.4941 661.401 61.9478 658.506 61.9478C654.018 61.9478 653.24 63.9775 653.24 75.6803C653.24 83.2332 652.004 89.4129 650.494 89.4129C644.398 89.4129 648.37 98.6823 658.734 108.638C671.229 120.643 671.921 122.371 664.227 122.371C657.124 122.371 657.292 124.563 664.914 131.344C669.106 135.074 669.99 137.241 667.661 138.076C661.873 140.152 663.568 149.836 669.721 149.836C673.382 149.836 675.215 151.668 675.215 155.329C675.215 158.35 676.451 160.822 677.961 160.822C679.472 160.822 680.708 163.294 680.708 166.315C680.708 171.075 682.54 171.808 694.442 171.808C706.344 171.808 708.176 172.541 708.176 177.301C708.176 180.322 709.412 182.794 710.923 182.794C712.433 182.794 713.67 188.974 713.67 196.527C713.67 208.427 712.936 210.259 708.176 210.259C704.122 210.259 702.682 208.427 702.682 203.269C702.682 194.269 691.206 182.794 682.205 182.794C678.36 182.794 675.215 181.558 675.215 180.048C675.215 178.537 673.305 177.301 670.971 177.301C663.118 177.301 653.24 164.491 653.24 154.31C653.24 149.081 651.697 144.079 649.807 143.198C647.06 141.918 647.06 141.275 649.807 139.995C651.697 139.114 653.24 134.788 653.24 130.382C653.24 122.868 652.559 122.371 642.253 122.371C636.21 122.371 631.266 121.135 631.266 119.624C631.266 115.546 623.21 116.301 618.71 120.803C616.551 122.959 614.785 126.667 614.785 129.042C614.785 131.415 613.549 133.357 612.039 133.357C610.528 133.357 609.292 131.415 609.292 129.042C609.292 126.667 607.438 122.871 605.172 120.605C601.51 116.944 600.593 116.944 596.931 120.605C594.665 122.871 592.811 126.667 592.811 129.042C592.811 131.415 591.575 133.357 590.064 133.357C588.554 133.357 587.318 135.829 587.318 138.85C587.318 141.871 588.554 144.343 590.064 144.343C591.575 144.343 592.811 145.579 592.811 147.09C592.811 148.6 590.339 149.836 587.318 149.836C583.656 149.836 581.824 151.668 581.824 155.329C581.824 158.35 583.06 160.822 584.571 160.822C588.828 160.822 587.812 168.96 582.947 173.824C579.409 177.362 578.152 177.502 576.33 174.555C574.509 171.608 573.251 171.748 569.714 175.285C564.514 180.484 563.915 192.811 568.777 194.555C571.106 195.39 570.222 197.557 566.03 201.286C559.729 206.889 557.628 215.752 562.597 215.752C564.107 215.752 565.343 219.46 565.343 223.992C565.343 231.317 564.429 232.231 557.103 232.231C550.813 232.231 548.863 233.478 548.863 237.496C548.863 240.391 550.409 243.388 552.296 244.154C554.897 245.209 554.752 246.225 551.697 248.348C548.275 250.726 548.585 251.946 553.757 256.431C557.108 259.337 559.85 263.731 559.85 266.197C559.85 268.85 562.094 270.682 565.343 270.682C569.922 270.682 570.837 272.514 570.837 281.668C570.837 290.663 571.79 292.654 576.102 292.654C578.998 292.654 581.917 291.108 582.593 289.221C583.266 287.334 584.752 286.656 585.895 287.716C588.345 289.993 580.871 298.147 576.33 298.147C572.276 298.147 565.343 305.08 565.343 309.133C565.343 314.302 574.314 322.05 575.652 318.035C576.278 316.159 580.393 314.627 584.799 314.627C590.979 314.627 592.811 313.371 592.811 309.133C592.811 302.613 599.678 301.874 605.565 307.76C609.226 311.421 609.226 312.339 605.565 316C603.299 318.266 598.266 320.12 594.38 320.12C590.496 320.12 587.318 321.355 587.318 322.866C587.318 324.377 585.299 325.613 582.832 325.613C580.365 325.613 575.875 328.392 572.85 331.792C569.12 335.983 566.953 336.868 566.118 334.539C565.439 332.649 561.281 331.106 556.875 331.106C550.695 331.106 548.863 332.361 548.863 336.599C548.863 339.62 547.627 342.092 546.116 342.092C544.605 342.092 543.369 344.563 543.369 347.585C543.369 354.588 540.177 354.588 535.129 347.585C529.924 340.364 521.395 340.364 521.395 347.585C521.395 350.606 520.159 353.078 518.648 353.078C517.137 353.078 515.901 351.842 515.901 350.331C515.901 348.821 512.193 347.585 507.661 347.585C501.253 347.585 499.421 348.804 499.421 353.078C499.421 357.315 497.589 358.571 491.408 358.571C487.002 358.571 482.676 360.114 481.795 362.004C480.515 364.75 479.872 364.75 478.592 362.004C476.301 357.096 447.924 357.486 442.917 362.495C440.758 364.651 438.991 369.595 438.991 373.481C438.991 378.711 437.566 380.543 433.498 380.543C430.375 380.543 428.004 382.375 428.004 384.786C428.004 390.282 440.238 402.515 445.735 402.515C448.07 402.515 449.979 403.751 449.979 405.261C449.979 406.772 448.742 408.008 447.232 408.008C445.721 408.008 444.485 409.244 444.485 410.754C444.485 412.265 446.957 413.501 449.979 413.501C456.145 413.501 457.801 423.083 452.039 425.423C449.446 426.473 449.613 427.59 452.725 429.98C455.837 432.369 456.005 433.487 453.412 434.536C451.525 435.303 449.979 438.299 449.979 441.194C449.979 445.506 447.987 446.459 438.991 446.459C432.949 446.459 428.004 445.223 428.004 443.712C428.004 438.48 413.54 440.966 408.044 447.146C404.313 451.337 402.146 452.221 401.311 449.892C399.66 445.292 392.821 445.542 387.981 450.384C383.149 455.212 382.883 462.089 387.464 463.616C391.903 465.097 383.465 473.924 377.615 473.924C375.365 473.924 372.973 475.47 372.294 477.357C371.459 479.686 369.292 478.802 365.562 474.611C357.571 465.629 351.094 466.55 351.094 476.67C351.094 483.995 350.18 484.91 342.854 484.91C332.024 484.91 332.024 491.274 342.854 501.389C350.88 508.884 353.874 517.868 348.348 517.868C346.837 517.868 345.601 522.812 345.601 528.854C345.601 534.896 344.365 539.84 342.854 539.84C341.343 539.84 340.107 542.312 340.107 545.333C340.107 548.354 341.343 550.826 342.854 550.826C347.71 550.826 345.782 560.469 340.107 564.559C334.432 568.648 332.504 578.291 337.361 578.291C338.871 578.291 340.107 580.763 340.107 583.784C340.107 587.445 338.275 589.277 334.614 589.277C331.592 589.277 329.12 590.513 329.12 592.024C329.12 593.534 326.648 594.77 323.627 594.77C320.605 594.77 318.133 596.006 318.133 597.517C318.133 599.027 315.661 600.263 312.639 600.263C309.618 600.263 307.146 599.027 307.146 597.517C307.146 596.006 305.91 594.77 304.399 594.77C302.888 594.77 301.652 599.714 301.652 605.756C301.652 611.799 302.888 616.742 304.399 616.742C305.91 616.742 307.146 620.45 307.146 624.982C307.146 629.514 305.91 633.221 304.399 633.221C302.888 633.221 301.652 635.693 301.652 638.714C301.652 643.293 303.484 644.207 312.639 644.207C320.797 644.207 323.627 645.32 323.627 648.522C323.627 650.898 325.593 654.806 327.997 657.209C331.65 660.862 332.749 660.956 334.713 657.778C336.006 655.688 338.055 655.04 339.272 656.336C340.486 657.632 339.937 659.245 338.047 659.917C332.625 661.854 334.048 666.18 340.107 666.18C343.129 666.18 345.601 667.415 345.601 668.926C345.601 670.437 344.365 671.673 342.854 671.673C341.343 671.673 340.107 674.144 340.107 677.166C340.107 680.187 341.343 682.659 342.854 682.659C344.365 682.659 345.601 686.366 345.601 690.898C345.601 697.918 344.554 699.138 338.539 699.138C330.59 699.138 323.627 704.817 323.627 711.302C323.627 714.265 321.047 715.617 315.386 715.617C307.187 715.617 304.053 719.621 310.555 721.788C316.218 723.675 305.742 732.096 297.727 732.096C292.497 732.096 290.665 733.521 290.665 737.589C290.665 740.61 291.901 743.082 293.412 743.082C294.923 743.082 296.159 744.318 296.159 745.828C296.159 747.339 292.451 748.575 287.918 748.575C282.257 748.575 279.678 747.223 279.678 744.26C279.678 741.884 277.711 737.976 275.308 735.573C271.586 731.851 270.537 731.78 268.232 735.084C266.156 738.058 265.203 738.163 264.134 735.529C261.794 729.767 252.21 731.423 252.21 737.589C252.21 741.25 250.378 743.082 246.717 743.082C243.695 743.082 241.223 744.318 241.223 745.828C241.223 747.339 239.987 748.575 238.476 748.575C236.966 748.575 235.73 746.103 235.73 743.082C235.73 739.646 233.898 737.589 230.843 737.589C228.154 737.589 224.174 740.061 221.996 743.082C215.788 751.695 208.262 750.19 208.262 740.335C208.262 733.266 207.235 732.096 201.03 732.096C197.038 732.096 191.493 734.754 188.652 738.028C185.821 741.294 182.588 742.977 181.464 741.772C180.341 740.569 180.967 739.031 182.854 738.358C186.919 736.905 187.521 726.603 183.541 726.603C182.03 726.603 180.794 727.839 180.794 729.349C180.794 730.86 179.558 732.096 178.047 732.096C176.536 732.096 175.3 728.918 175.3 725.034C175.3 721.148 173.463 716.133 171.216 713.886C167.601 710.272 166.338 710.596 160.229 716.704C156.433 720.5 153.326 725.518 153.326 727.852C153.326 733.919 144.273 733.095 139.592 726.603C137.414 723.582 133.434 721.11 130.745 721.11C128.059 721.11 125.858 719.874 125.858 718.363C125.858 716.853 123.386 715.617 120.365 715.617C117.343 715.617 114.871 714.381 114.871 712.87C114.871 711.36 111.163 710.124 106.631 710.124C102.099 710.124 98.3906 711.36 98.3906 712.87C98.3906 714.397 91.0649 715.617 81.9099 715.617H65.4292V726.603C65.4292 735.757 64.5145 737.589 59.9356 737.589C55.6616 737.589 54.4421 739.421 54.4421 745.828C54.4421 750.36 53.206 754.068 51.6953 754.068C50.1846 754.068 48.9485 756.54 48.9485 759.561C48.9485 763.834 47.1164 765.054 40.7082 765.054C36.176 765.054 32.4678 766.29 32.4678 767.8C32.4678 769.311 28.7597 770.547 24.2275 770.547C16.9018 770.547 15.9871 771.461 15.9871 778.786C15.9871 783.318 17.2232 787.026 18.7339 787.026C20.2446 787.026 21.4807 789.226 21.4807 791.912C21.4807 794.601 23.9528 798.58 26.9742 800.758C34.7009 806.328 33.811 808.998 24.2275 808.998C18.5664 808.998 15.9871 810.349 15.9871 813.313C15.9871 820.207 23.1288 825.477 32.4678 825.477C43.7571 825.477 48.9485 831.039 48.9485 843.134C48.9485 851.11 49.973 852.942 54.4421 852.942C57.4635 852.942 59.9356 854.178 59.9356 855.689C59.9356 857.199 58.6996 858.435 57.1888 858.435C55.6781 858.435 54.4421 860.907 54.4421 863.928C54.4421 867.589 56.2742 869.421 59.9356 869.421C62.9571 869.421 65.4292 868.185 65.4292 866.675C65.4292 865.164 67.9013 863.928 70.9227 863.928C75.5016 863.928 76.4163 865.76 76.4163 874.914C76.4163 885.29 76.875 885.9 84.6567 885.9C89.1888 885.9 92.897 887.136 92.897 888.647C92.897 890.157 95.3691 891.393 98.3906 891.393C102.459 891.393 103.884 893.225 103.884 898.455C103.884 906.469 95.4625 916.944 93.5755 911.281C92.9492 909.405 88.8345 907.872 84.4286 907.872C76.9409 907.872 76.4163 908.575 76.4163 918.63C76.4163 924.752 77.8857 929.877 79.825 930.523C82.3053 931.349 81.984 932.909 78.6494 936.244C71.9692 942.923 70.9227 942.055 70.9227 929.844C70.9227 923.802 69.6867 918.858 68.176 918.858C66.6652 918.858 65.4292 920.094 65.4292 921.605C65.4292 925.683 57.3729 924.928 52.8737 920.427C50.7147 918.271 48.9485 913.327 48.9485 909.441C48.9485 904.502 47.479 902.379 44.062 902.379C41.3729 902.379 37.3928 899.907 35.2146 896.886C33.0364 893.865 29.5865 891.393 27.5456 891.393C21.7856 891.393 15.9871 898.567 15.9871 905.697C15.9871 909.248 13.515 913.934 10.4936 916.112C6.17837 919.221 5 923.222 5 934.766C5 949.897 8.99936 957.309 17.1655 957.309C19.5388 957.309 21.4807 958.545 21.4807 960.056C21.4807 961.566 23.4226 962.802 25.7958 962.802C29.96 962.802 37.9614 968.996 37.9614 972.22C37.9614 973.082 35.4893 973.788 32.4678 973.788C28.3998 973.788 26.9742 975.62 26.9742 980.85C26.9742 988.798 32.6546 995.76 39.1398 995.76C44.4933 995.76 44.603 997.752 39.5297 1002.82M713.67 39.9757C716.691 39.9757 719.163 38.7398 719.163 37.2292C719.163 35.7186 721.635 34.4827 724.657 34.4827" stroke="#F5F9E9"/>
</g>
<defs>
<filter id="filter0_d_425_30" x="0.5" y="0.266602" width="1289" height="1012.23" filterUnits="userSpaceOnUse" color-interpolation-filters="sRGB">
<feFlood flood-opacity="0" result="BackgroundImageFix"/>
<feColorMatrix in="SourceAlpha" type="matrix" values="0 0 0 0 0 0 0 0 0 0 0 0 0 0 0 0 0 0 127 0" result="hardAlpha"/>
<feOffset dy="4"/>
<feGaussianBlur stdDeviation="2"/>
<feColorMatrix type="matrix" values="0 0 0 0 0 0 0 0 0 0 0 0 0 0 0 0 0 0 0.25 0"/>
<feBlend mode="normal" in2="BackgroundImageFix" result="effect1_dropShadow_425_30"/>
<feBlend mode="normal" in="SourceGraphic" in2="effect1_dropShadow_425_30" result="shape"/>
</filter>
</defs>
</svg>
